<svg width="367" height="320" viewBox="0 0 367 320" fill="none" xmlns="http://www.w3.org/2000/svg">
<path d="M339 108.5C337 105.5 334.5 102.5 332 99.5C331 99.1667 328.7 98.5 327.5 98.5C326 98.5 320 93 313.5 91C309 91 292 92 289 92C286.6 92 284.667 97 284 99.5C279 111.833 268.5 138 266.5 144C264 151.5 265 150 265 151C265 152 255.5 174.5 257.5 183C259.5 191.5 257.5 192.5 255.5 195.5C253.5 198.5 252 206 252 210C252 214 266 220.5 271.5 223C275.9 225 275.333 236.167 274.5 241.5C273.5 242.5 270 246.1 264 252.5C258 258.9 257.167 264.5 257.5 266.5C254.667 267.667 248.1 269.9 244.5 269.5C240.9 269.1 237 272.667 235.5 274.5C230.667 275 221 274.5 221 268.5C221 261 227 258 232.5 256C236.9 254.4 240.333 254.333 241.5 254.5C245 252.333 252.7 246.9 255.5 242.5C258.3 238.1 254.333 235 252 234L219 220.5C217.333 227.5 214 243.2 214 250C214 258.5 212 264 210.5 265.5C209 267 207 286 207 292.5C207 299 209 302 212 302C215 302 217 308.5 219 311.5C220.6 313.9 223 318.167 224 320H202.5C202.167 318.667 201.7 315.3 202.5 312.5C203.5 309 203 310 198.5 307.5C194 305 193 298 193 292.5C193 287 196 276 196 273C196 270 196 267.5 195 258C194 248.5 196 250 196 247C196 244 196 223 195 220.5C194 218 189.5 218 184.5 217C179.5 216 170 220.5 164.5 220.5C159 220.5 125 224 122 223C119 222 115 229 112.5 232C110 235 108 238 108 242.5C108 247 101.5 254.5 101.5 258C101.5 260.8 100.5 266.167 100 268.5C102 272.667 106.4 281.5 108 283.5C110 286 114 293.5 114 298C114 302.5 125.5 306 127.5 307.5C129.1 308.7 131.833 314.667 133 317.5L111.5 316C111 315.167 110 313.3 110 312.5V307.5C106.667 307 100 305.2 100 302C100 298 88.5 278 85 273C81.5 268 77.5 264.5 77 258C76.5 251.5 80 251 83.5 244.5C87 238 85.5 227 83.5 223C81.5 219 72 230 69.5 232C67 234 60.5 243.5 56 247C51.5 250.5 51.5 258.5 49 262.5C47 265.7 42.5 272.833 40.5 276C39.8333 282.333 38.2 295.6 37 298C35.8 300.4 36.5 303 37 304L42.5 311.5L46.5 320H21.5C21.8333 317.833 22.5 313.1 22.5 311.5C22.5 309.5 25.5 307.5 24 306C22.5 304.5 21.5 298.5 22.5 295C23.3 292.2 26.1667 276.167 27.5 268.5C26.6667 264.167 26.8 253.8 34 247C43 238.5 46.5 214.5 46.5 207C46.5 199.5 49.5 173.5 49.5 168.5V160C49.5 158.5 46 168.5 44 184C42.0373 199.211 30.9259 239.942 27.6767 251.852L27.5 252.5C24.5 263.5 7.99996 293 1.99996 292C-4.00004 291 5.99996 235.5 7.99996 214.5C9.59996 197.7 28 168.167 37 155.5C37.8333 154.167 39.8 150.9 41 148.5C42.5 145.5 47 141.5 49.5 141.5C52 141.5 56.5 142 65 138C84.6 122 110.5 123.333 121 126V118.5C121 116.9 122.667 116.167 123.5 116L129 118.5V105L132 98.5C130.5 97.1667 126.7 93.8 123.5 91C120.3 88.2 122.167 82.1667 123.5 79.5C129.833 71.1667 142.9 53.6 144.5 50C146.1 46.4 152.833 42.1667 156 40.5C163.667 39.1667 179.3 36.2 180.5 35C182 33.5 191 34.5 185.5 25.5C181.1 18.3 186 8.83333 189 5C191.167 3.5 197.5 0.5 205.5 0.5C215.5 0.5 224 10 224 14C224 18 223 20 222 24C221 28 219 28.5 215.5 30C212 31.5 214.5 34.5 215.5 39C216.5 43.5 212.5 43.5 205.5 42.5C198.5 41.5 203 43.5 203.5 47C204 50.5 209.5 59 209.5 67.5C209.5 76 204 89.5 205.5 92C207 94.5 216.5 78 233.5 50C250.5 22 294.5 18 298 15.5C301.5 13 311.5 -1.5 311.5 0.5C311.5 2.5 309 21 311.5 20C313.5 19.2 320.667 9.66667 324 5C328 9.5 319 25.5 319 28.5C319 31.5 332 38.5 333.5 43.5C335 48.5 339 54 344 61.5C349 69 354.5 75 362 79.5C369.5 84 366.5 92.5 364 95C361.5 97.5 363 103.5 360.5 107C358 110.5 353 108.5 348.5 111C344 113.5 341 111.5 339 108.5Z" 
fill="#929c9330"/>
</svg>
